<svg xmlns="http://www.w3.org/2000/svg" xmlns:xlink="http://www.w3.org/1999/xlink" contentStyleType="text/css" data-diagram-type="CLASS" height="251px" preserveAspectRatio="none" style="width:168px;height:251px;background:#FFFFFF;" version="1.1" viewBox="0 0 168 251" width="168px" zoomAndPan="magnify"><defs/><g><!--class Person--><g id="elem_Person"><rect codeLine="1" fill="#F1F1F1" height="113.1875" id="Person" rx="2.5" ry="2.5" style="stroke:#181818;stroke-width:0.5;" width="152.1641" x="9" y="131.29"/><ellipse cx="57.0601" cy="147.29" fill="#ADD1B2" rx="11" ry="11" style="stroke:#181818;stroke-width:1;"/><path d="M60.0288,152.9306 Q59.4507,153.2275 58.8101,153.3681 Q58.1694,153.5244 57.4663,153.5244 Q54.9663,153.5244 53.6382,151.8838 Q52.3257,150.2275 52.3257,147.1025 Q52.3257,143.9775 53.6382,142.3213 Q54.9663,140.665 57.4663,140.665 Q58.1694,140.665 58.8101,140.8213 Q59.4663,140.9775 60.0288,141.2744 L60.0288,143.9931 Q59.4038,143.415 58.8101,143.1494 Q58.2163,142.8681 57.5913,142.8681 Q56.2476,142.8681 55.5601,143.9463 Q54.8726,145.0088 54.8726,147.1025 Q54.8726,149.1963 55.5601,150.2744 Q56.2476,151.3369 57.5913,151.3369 Q58.2163,151.3369 58.8101,151.0713 Q59.4038,150.79 60.0288,150.2119 L60.0288,152.9306 Z " fill="#000000"/><text fill="#000000" font-family="sans-serif" font-size="14" lengthAdjust="spacing" textLength="47.5439" x="77.5601" y="152.1367">Person</text><line style="stroke:#181818;stroke-width:0.5;" x1="10" x2="160.1641" y1="163.29" y2="163.29"/><rect fill="#FFFFFF" fill-opacity="0.00000" height="6" style="stroke:#C82930;stroke-width:1;" width="6" x="17" y="173.9384"/><text fill="#000000" font-family="sans-serif" font-size="14" lengthAdjust="spacing" textLength="90.6514" x="29" y="180.2851">name: String</text><rect fill="#FFFFFF" fill-opacity="0.00000" height="6" style="stroke:#C82930;stroke-width:1;" width="6" x="17" y="190.2353"/><text fill="#000000" font-family="sans-serif" font-size="14" lengthAdjust="spacing" textLength="112.5742" x="29" y="196.582">surname: String</text><line style="stroke:#181818;stroke-width:0.5;" x1="10" x2="160.1641" y1="203.8838" y2="203.8838"/><polygon fill="#4177AF" points="20,213.5322,16,219.5322,24,219.5322" style="stroke:#1963A0;stroke-width:1;"/><text fill="#000000" font-family="sans-serif" font-size="14" lengthAdjust="spacing" textLength="126.1641" x="29" y="220.8789">getName(): String</text><ellipse cx="20" cy="233.8291" fill="#84BE84" rx="3" ry="3" style="stroke:#038048;stroke-width:1;"/><text fill="#000000" font-family="sans-serif" font-size="14" lengthAdjust="spacing" textLength="117.708" x="29" y="237.1757">toString(): String</text></g><!--class Student--><g id="elem_Student"><rect codeLine="8" fill="#F1F1F1" height="64.2969" id="Student" rx="2.5" ry="2.5" style="stroke:#181818;stroke-width:0.5;" width="103.1094" x="33.53" y="7"/><ellipse cx="55.7291" cy="23" fill="#ADD1B2" rx="11" ry="11" style="stroke:#181818;stroke-width:1;"/><path d="M58.6979,28.6406 Q58.1197,28.9375 57.4791,29.0781 Q56.8385,29.2344 56.1354,29.2344 Q53.6354,29.2344 52.3072,27.5938 Q50.9947,25.9375 50.9947,22.8125 Q50.9947,19.6875 52.3072,18.0313 Q53.6354,16.375 56.1354,16.375 Q56.8385,16.375 57.4791,16.5313 Q58.1354,16.6875 58.6979,16.9844 L58.6979,19.7031 Q58.0729,19.125 57.4791,18.8594 Q56.8854,18.5781 56.2604,18.5781 Q54.9166,18.5781 54.2291,19.6563 Q53.5416,20.7188 53.5416,22.8125 Q53.5416,24.9063 54.2291,25.9844 Q54.9166,27.0469 56.2604,27.0469 Q56.8854,27.0469 57.4791,26.7813 Q58.0729,26.5 58.6979,25.9219 L58.6979,28.6406 Z " fill="#000000"/><text fill="#000000" font-family="sans-serif" font-size="14" lengthAdjust="spacing" textLength="55.1113" x="71.3289" y="27.8467">Student</text><line style="stroke:#181818;stroke-width:0.5;" x1="34.53" x2="135.6394" y1="39" y2="39"/><rect fill="#FFFFFF" fill-opacity="0.00000" height="6" style="stroke:#C82930;stroke-width:1;" width="6" x="41.53" y="49.6484"/><text fill="#000000" font-family="sans-serif" font-size="14" lengthAdjust="spacing" textLength="77.1094" x="53.53" y="55.9951">matrNr: int</text><line style="stroke:#181818;stroke-width:0.5;" x1="34.53" x2="135.6394" y1="63.2969" y2="63.2969"/></g><!--reverse link Student to Person--><g id="link_Student_Person"><path codeLine="12" d="M85.08,89.62 C85.08,106.89 85.08,110.81 85.08,130.88 " fill="#FFFFFF" fill-opacity="0.00000" id="Student-backto-Person" style="stroke:#181818;stroke-width:1;"/><polygon fill="#FFFFFF" fill-opacity="0.00000" points="85.08,71.62,79.08,89.62,91.08,89.62,85.08,71.62" style="stroke:#181818;stroke-width:1;"/></g><!--SRC=[Iyv9B2vM24WjAixFKwZcKb3GpKlCJRLI22ufoinB1_6BIulGXEhIKqlyW48QcaY2sYNv43QIQ2qNLpBO_E2IqfJKl1Am-Rc99KL-HLOAcNab80LGAOKuNLseCm00]--></g></svg>